<svg xmlns="http://www.w3.org/2000/svg" version="1.1" xmlns:xlink="http://www.w3.org/1999/xlink" xmlns:svgjs="http://svgjs.com/svgjs" width="512" height="512" x="0" y="0" viewBox="0 0 512 512" style="enable-background:new 0 0 512 512" xml:space="preserve"><g><path d="m351.332031 153.660156v-88.453125c0-35.953125-29.253906-65.207031-65.210937-65.207031h-220.917969c-35.953125 0-65.203125 29.253906-65.203125 65.207031v147.714844c0 30.796875 21.457031 56.671875 50.203125 63.46875v36.949219c0 6.066406 3.65625 11.535156 9.261719 13.859375 1.855468.769531 3.804687 1.140625 5.738281 1.140625 3.902344 0 7.738281-1.523438 10.609375-4.394532l45.8125-45.8125h9.046875v-29.265624c0-52.5 42.707031-95.207032 95.203125-95.207032zm0 0" fill="#b7b7b7" data-original="#000000"></path><path d="m446.792969 183.660156h-220.917969c-35.953125 0-65.203125 29.25-65.203125 65.207032v147.714843c0 35.957031 29.25 65.207031 65.203125 65.207031h164.496094l45.8125 45.816407c2.871094 2.871093 6.707031 4.394531 10.613281 4.394531 1.929687 0 3.878906-.371094 5.734375-1.140625 5.605469-2.324219 9.261719-7.792969 9.261719-13.859375v-36.949219c28.75-6.792969 50.207031-32.671875 50.207031-63.46875v-147.714843c0-35.957032-29.253906-65.207032-65.207031-65.207032zm-46.597657 114.167969-71.007812 71.007813c-2.929688 2.929687-6.769531 4.390624-10.605469 4.390624-3.839843 0-7.679687-1.460937-10.605469-4.390624l-35.507812-35.503907c-5.859375-5.855469-5.859375-15.355469 0-21.214843 5.855469-5.855469 15.355469-5.855469 21.210938 0l24.902343 24.898437 60.398438-60.402344c5.859375-5.855469 15.355469-5.855469 21.214843 0 5.859376 5.859375 5.859376 15.359375 0 21.214844zm0 0" fill="#b7b7b7" data-original="#000000"></path></g></svg>