<?xml version="1.0" encoding="UTF-8"?>
<svg xmlns="http://www.w3.org/2000/svg" xmlns:xlink="http://www.w3.org/1999/xlink" viewBox="0 0 150 150" width="150px" height="150px">
<g id="surface113247388">
<path style=" stroke:none;fill-rule:nonzero;fill:rgb(71.764708%,71.764708%,71.764708%);fill-opacity:1;" d="M 73.5 6 C 47.402344 6 42 19.476562 42 27.28125 L 42 42 L 72 42 L 72 45 L 27.28125 45 C 17.378906 45 6 52.804688 6 75 C 6 97.195312 17.378906 105 27.28125 105 L 45 105 L 45 87 C 45 80.402344 50.402344 75 57 75 L 93 75 C 98.097656 75 102 71.097656 102 66 L 102 27.28125 C 102 16.78125 92.097656 6 73.5 6 Z M 60 21 C 63.304688 21 66 23.695312 66 27 C 66 30.304688 63.304688 33 60 33 C 56.695312 33 54 30.304688 54 27 C 54 23.695312 56.695312 21 60 21 Z M 105 45 L 105 66 C 105 72.597656 99.597656 78 93 78 L 57 78 C 51.902344 78 48 81.902344 48 87 L 48 122.71875 C 48 133.21875 57.902344 144 76.5 144 C 102.597656 144 108 130.523438 108 122.71875 L 108 108 L 78 108 L 78 105 L 122.71875 105 C 132.621094 105 144 97.195312 144 75 C 144 52.804688 132.621094 45 122.71875 45 Z M 90 117 C 93.304688 117 96 119.695312 96 123 C 96 126.304688 93.304688 129 90 129 C 86.695312 129 84 126.304688 84 123 C 84 119.695312 86.695312 117 90 117 Z M 90 117 "/>
</g>
</svg>
