<?xml version="1.0" encoding="UTF-8"?>
<svg xmlns="http://www.w3.org/2000/svg" xmlns:xlink="http://www.w3.org/1999/xlink" viewBox="0 0 150 150" width="150px" height="150px">
<g id="surface113140975">
<path style=" stroke:none;fill-rule:nonzero;fill:rgb(71.764708%,71.764708%,71.764708%);fill-opacity:1;" d="M 150.1875 31.3125 C 144.644531 33.773438 138.703125 35.425781 132.457031 36.175781 C 138.832031 32.355469 143.730469 26.308594 146.027344 19.113281 C 140.074219 22.640625 133.453125 25.207031 126.433594 26.589844 C 120.808594 20.589844 112.792969 16.851562 103.921875 16.851562 C 86.882812 16.851562 73.066406 30.65625 73.066406 47.695312 C 73.066406 50.109375 73.347656 52.464844 73.875 54.726562 C 48.234375 53.4375 25.511719 41.15625 10.289062 22.488281 C 7.628906 27.058594 6.117188 32.355469 6.117188 38.003906 C 6.117188 48.703125 11.554688 58.148438 19.839844 63.691406 C 14.777344 63.527344 10.019531 62.132812 5.859375 59.824219 C 5.859375 59.953125 5.859375 60.082031 5.859375 60.210938 C 5.859375 75.164062 16.5 87.621094 30.597656 90.46875 C 28.019531 91.171875 25.289062 91.546875 22.476562 91.546875 C 20.484375 91.546875 18.550781 91.359375 16.664062 90.984375 C 20.601562 103.230469 31.992188 112.171875 45.480469 112.417969 C 34.933594 120.691406 21.632812 125.613281 7.171875 125.613281 C 4.675781 125.613281 2.226562 125.472656 -0.175781 125.179688 C 13.464844 133.945312 29.683594 139.042969 47.109375 139.042969 C 103.851562 139.042969 134.882812 92.039062 134.882812 51.28125 C 134.882812 49.945312 134.847656 48.597656 134.800781 47.285156 C 140.824219 42.9375 146.050781 37.5 150.1875 31.3125 Z M 150.1875 31.3125 "/>
</g>
</svg>
