<svg xmlns="http://www.w3.org/2000/svg" xmlns:xlink="http://www.w3.org/1999/xlink" width="500" zoomAndPan="magnify" viewBox="0 0 375 374.999991" height="500" preserveAspectRatio="xMidYMid meet" version="1.0"><defs><g/><clipPath id="c5f2f41e9e"><path d="M 181 230 L 333 230 L 333 273 L 181 273 Z M 181 230 " clip-rule="nonzero"/></clipPath><clipPath id="2d474d9d90"><path d="M 177.730469 254.730469 L 330.445312 222.875 L 334.425781 241.964844 L 181.710938 273.816406 Z M 177.730469 254.730469 " clip-rule="nonzero"/></clipPath><clipPath id="867e62eb0a"><path d="M 177.730469 254.730469 L 330.445312 222.875 L 334.425781 241.964844 L 181.710938 273.816406 Z M 177.730469 254.730469 " clip-rule="nonzero"/></clipPath><clipPath id="78e3083273"><path d="M 177.730469 254.730469 L 330.445312 222.875 L 334.425781 241.964844 L 181.710938 273.816406 Z M 177.730469 254.730469 " clip-rule="nonzero"/></clipPath><clipPath id="c2b39e8e17"><path d="M 335 232 L 351 232 L 351 247 L 335 247 Z M 335 232 " clip-rule="nonzero"/></clipPath><clipPath id="5a5b0ce30e"><path d="M 336.988281 231.199219 L 351.667969 234.296875 L 348.722656 248.238281 L 334.046875 245.140625 Z M 336.988281 231.199219 " clip-rule="nonzero"/></clipPath><clipPath id="8884f95982"><path d="M 336.988281 231.199219 L 351.667969 234.296875 L 348.722656 248.238281 L 334.046875 245.140625 Z M 336.988281 231.199219 " clip-rule="nonzero"/></clipPath></defs><g fill="#ffffff" fill-opacity="1"><g transform="translate(55.393545, 254.359953)"><g><path d="M 111.515625 -185.796875 C 120.910156 -179.847656 124.171875 -170.984375 121.296875 -159.203125 C 118.421875 -147.429688 111.304688 -133.675781 99.953125 -117.9375 C 88.597656 -102.195312 66.519531 -82.398438 33.71875 -58.546875 C 30.707031 -56.179688 27.707031 -53.707031 24.71875 -51.125 C 24.488281 -50.925781 24.347656 -50.613281 24.296875 -50.1875 C 24.242188 -49.769531 24.179688 -49.382812 24.109375 -49.03125 C 24.296875 -48.550781 24.539062 -48.234375 24.84375 -48.078125 C 25.144531 -47.921875 25.503906 -47.867188 25.921875 -47.921875 C 33.210938 -48.523438 40.515625 -48.367188 47.828125 -47.453125 C 68.921875 -44.898438 86.578125 -34.742188 100.796875 -16.984375 C 118.035156 4.523438 127.03125 29.503906 127.78125 57.953125 C 127.832031 61.296875 127.816406 64.554688 127.734375 67.734375 C 127.722656 68.753906 127.710938 69.726562 127.703125 70.65625 C 127.703125 72.050781 127.238281 73.238281 126.3125 74.21875 C 125.945312 74.601562 125.519531 74.914062 125.03125 75.15625 C 124.550781 75.40625 124.050781 75.390625 123.53125 75.109375 C 123 74.921875 122.613281 74.59375 122.375 74.125 C 122.132812 73.664062 122.054688 73.144531 122.140625 72.5625 C 122.328125 67.175781 122.128906 61.847656 121.546875 56.578125 C 120.097656 41.367188 116.347656 27.453125 110.296875 14.828125 C 104.242188 2.210938 96.082031 -9.15625 85.8125 -19.28125 C 78.695312 -26.226562 70.976562 -31.375 62.65625 -34.71875 C 54.34375 -38.0625 45.550781 -39.921875 36.28125 -40.296875 C 33.257812 -40.484375 30.238281 -40.476562 27.21875 -40.28125 C 25.394531 -40.207031 24.554688 -39.132812 24.703125 -37.0625 C 24.859375 -34.59375 25.078125 -32.082031 25.359375 -29.53125 C 26.910156 -17.34375 28.484375 -5.210938 30.078125 6.859375 C 32.015625 22.410156 33.984375 37.957031 35.984375 53.5 C 36.171875 54.882812 36.210938 56.265625 36.109375 57.640625 C 35.773438 59.097656 34.925781 59.960938 33.5625 60.234375 C 32.820312 60.410156 32.226562 60.265625 31.78125 59.796875 C 31.34375 59.328125 31.03125 58.722656 30.84375 57.984375 C 30.28125 55.554688 29.816406 53.070312 29.453125 50.53125 C 26.046875 27.582031 22.660156 4.664062 19.296875 -18.21875 C 18.953125 -20.675781 18.613281 -23.101562 18.28125 -25.5 C 18.113281 -26.65625 17.953125 -27.796875 17.796875 -28.921875 C 17.523438 -30.890625 17.253906 -32.828125 16.984375 -34.734375 C 16.710938 -36.703125 16.242188 -37.925781 15.578125 -38.40625 C 14.921875 -38.894531 13.644531 -38.96875 11.75 -38.625 C 7.5 -37.945312 3.492188 -36.4375 -0.265625 -34.09375 C -3.796875 -31.8125 -7.441406 -29.703125 -11.203125 -27.765625 C -11.253906 -27.679688 -11.316406 -27.632812 -11.390625 -27.625 C -13.398438 -26.425781 -15.59375 -25.867188 -17.96875 -25.953125 C -18.726562 -25.992188 -19.304688 -26.40625 -19.703125 -27.1875 C -20.097656 -27.96875 -20.144531 -28.765625 -19.84375 -29.578125 C -19.4375 -30.804688 -18.804688 -31.832031 -17.953125 -32.65625 C -17.109375 -33.488281 -16.238281 -34.210938 -15.34375 -34.828125 C -10.914062 -38.035156 -6.125 -40.378906 -0.96875 -41.859375 C 1.039062 -42.484375 2.945312 -43.34375 4.75 -44.4375 C 6.550781 -45.53125 8.300781 -46.6875 10 -47.90625 C 10.757812 -48.425781 11.46875 -48.910156 12.125 -49.359375 C 13.957031 -50.710938 14.703125 -52.617188 14.359375 -55.078125 C 13.484375 -62.640625 12.632812 -70.164062 11.8125 -77.65625 C 10.6875 -88.71875 9.410156 -99.78125 7.984375 -110.84375 C 6.566406 -121.90625 4.75 -132.894531 2.53125 -143.8125 C 2.257812 -145.175781 2.207031 -146.539062 2.375 -147.90625 C 2.476562 -148.738281 2.941406 -149.53125 3.765625 -150.28125 C 4.597656 -151.03125 5.394531 -151.378906 6.15625 -151.328125 C 7.53125 -151.109375 8.4375 -150.234375 8.875 -148.703125 C 9.0625 -148.148438 9.234375 -147.578125 9.390625 -146.984375 C 10.054688 -145.191406 10.601562 -143.351562 11.03125 -141.46875 C 13.550781 -129.957031 15.4375 -118.289062 16.6875 -106.46875 C 17.894531 -95.6875 19.160156 -84.875 20.484375 -74.03125 C 20.921875 -70.332031 21.363281 -66.628906 21.8125 -62.921875 C 21.925781 -62.097656 22.097656 -61.148438 22.328125 -60.078125 C 22.503906 -59.421875 22.640625 -58.738281 22.734375 -58.03125 C 23.367188 -58.34375 23.925781 -58.570312 24.40625 -58.71875 C 25.1875 -59.09375 25.796875 -59.476562 26.234375 -59.875 C 37.140625 -68.175781 47.675781 -76.929688 57.84375 -86.140625 C 68.019531 -95.347656 77.671875 -105.289062 86.796875 -115.96875 C 92.972656 -123.113281 98.691406 -130.734375 103.953125 -138.828125 C 106.828125 -143.328125 109.289062 -148.15625 111.34375 -153.3125 C 112.238281 -155.832031 112.945312 -158.484375 113.46875 -161.265625 C 114.132812 -164.929688 113.847656 -168.207031 112.609375 -171.09375 C 111.367188 -173.988281 109.34375 -176.492188 106.53125 -178.609375 C 103.0625 -181.117188 99.304688 -182.816406 95.265625 -183.703125 C 87.816406 -185.472656 80.3125 -186.09375 72.75 -185.5625 C 57.9375 -184.539062 43.71875 -181.523438 30.09375 -176.515625 C 16.476562 -171.515625 3.382812 -164.878906 -9.1875 -156.609375 C -11.550781 -155.015625 -13.753906 -153.28125 -15.796875 -151.40625 C -18.148438 -149.394531 -20.203125 -147.15625 -21.953125 -144.6875 C -23.703125 -142.21875 -25.015625 -139.378906 -25.890625 -136.171875 C -26.191406 -134.878906 -26.765625 -133.71875 -27.609375 -132.6875 C -28.078125 -132.125 -28.609375 -131.753906 -29.203125 -131.578125 C -29.804688 -131.398438 -30.425781 -131.507812 -31.0625 -131.90625 C -31.507812 -132.1875 -31.8125 -132.59375 -31.96875 -133.125 C -32.125 -133.65625 -32.203125 -134.203125 -32.203125 -134.765625 C -32.097656 -137.054688 -31.484375 -139.164062 -30.359375 -141.09375 C -27.910156 -145.945312 -24.765625 -150.15625 -20.921875 -153.71875 C -16.734375 -157.707031 -12.242188 -161.164062 -7.453125 -164.09375 C 4.984375 -172.039062 17.882812 -178.460938 31.25 -183.359375 C 44.625 -188.253906 58.601562 -191.3125 73.1875 -192.53125 C 81.675781 -193.300781 90.195312 -192.816406 98.75 -191.078125 C 103.21875 -190.117188 107.472656 -188.359375 111.515625 -185.796875 Z M 111.515625 -185.796875 "/></g></g></g><g fill="#ffffff" fill-opacity="1"><g transform="translate(162.170795, 239.380551)"><g><path d="M 8.625 -42.96875 C 13.445312 -43.875 17.109375 -42.09375 19.609375 -37.625 C 21.390625 -34.332031 22.269531 -30.675781 22.25 -26.65625 C 22.226562 -22.632812 21.367188 -19.175781 19.671875 -16.28125 C 18.035156 -13.625 15.847656 -11.75 13.109375 -10.65625 C 10.378906 -9.5625 7.582031 -9.394531 4.71875 -10.15625 C 1.851562 -10.914062 -0.597656 -12.867188 -2.640625 -16.015625 C -4.296875 -18.816406 -5.128906 -21.753906 -5.140625 -24.828125 C -5.148438 -27.421875 -4.78125 -29.992188 -4.03125 -32.546875 C -3.21875 -35.648438 -1.695312 -38.03125 0.53125 -39.6875 C 2.769531 -41.351562 5.46875 -42.445312 8.625 -42.96875 Z M 10.421875 -14.34375 C 12.296875 -15.875 13.519531 -17.867188 14.09375 -20.328125 C 14.664062 -22.785156 14.8125 -25.351562 14.53125 -28.03125 C 14.25 -30.71875 13.679688 -33.175781 12.828125 -35.40625 C 11.679688 -38.507812 10.507812 -39.945312 9.3125 -39.71875 C 8.125 -39.5 7.039062 -38.253906 6.0625 -35.984375 C 5.09375 -33.722656 4.335938 -31.050781 3.796875 -27.96875 C 3.265625 -24.894531 3.085938 -21.988281 3.265625 -19.25 C 3.441406 -16.519531 4.09375 -14.601562 5.21875 -13.5 C 6.34375 -12.40625 8.078125 -12.6875 10.421875 -14.34375 Z M 10.421875 -14.34375 "/></g></g></g><g fill="#ffffff" fill-opacity="1"><g transform="translate(192.222883, 235.16465)"><g><path d="M 72.5 -41.796875 C 72.882812 -42.484375 73.285156 -42.710938 73.703125 -42.484375 C 74.117188 -42.253906 74.285156 -41.757812 74.203125 -41 C 73.972656 -36.101562 69.207031 -31.285156 59.90625 -26.546875 C 54.082031 -23.296875 48.734375 -21.460938 43.859375 -21.046875 C 38.992188 -20.628906 34.859375 -21.976562 31.453125 -25.09375 C 28.046875 -28.21875 25.648438 -33.519531 24.265625 -41 C 23.609375 -44.34375 22.726562 -45.648438 21.625 -44.921875 C 20.53125 -44.191406 19.363281 -42.273438 18.125 -39.171875 C 16.882812 -36.066406 15.695312 -32.59375 14.5625 -28.75 C 13.4375 -24.90625 12.484375 -21.53125 11.703125 -18.625 C 10.929688 -15.71875 10.53125 -14.085938 10.5 -13.734375 C 10.40625 -13.117188 10.289062 -12.515625 10.15625 -11.921875 C 9.894531 -10.210938 9.5 -8.519531 8.96875 -6.84375 C 8.46875 -5.519531 7.578125 -4.539062 6.296875 -3.90625 C 5.015625 -3.269531 3.585938 -3.128906 2.015625 -3.484375 C 1.046875 -3.878906 0.335938 -4.503906 -0.109375 -5.359375 C -0.816406 -6.847656 -1.164062 -8.335938 -1.15625 -9.828125 C -1.175781 -10.015625 -1.195312 -10.179688 -1.21875 -10.328125 C -1.726562 -17.710938 -3.046875 -28.582031 -5.171875 -42.9375 C -6.460938 -52.113281 -7.765625 -61.882812 -9.078125 -72.25 C -10.398438 -82.625 -11.519531 -92.882812 -12.4375 -103.03125 C -13.394531 -114.039062 -13.710938 -124.1875 -13.390625 -133.46875 C -13.078125 -142.757812 -11.601562 -150.453125 -8.96875 -156.546875 C -6.34375 -162.640625 -2.039062 -166.445312 3.9375 -167.96875 C 6.507812 -168.601562 9.1875 -168.695312 11.96875 -168.25 C 14.757812 -167.800781 17.507812 -166.582031 20.21875 -164.59375 C 25.976562 -160.46875 30.613281 -154.253906 34.125 -145.953125 C 37.644531 -137.660156 39.289062 -127.757812 39.0625 -116.25 C 38.84375 -104.75 36.070312 -92.140625 30.75 -78.421875 C 25.425781 -64.710938 16.867188 -50.394531 5.078125 -35.46875 C 4.972656 -35.101562 4.929688 -34.828125 4.953125 -34.640625 C 4.859375 -34.472656 4.816406 -34.351562 4.828125 -34.28125 C 4.835938 -34.207031 4.847656 -34.144531 4.859375 -34.09375 C 4.867188 -34.039062 4.875 -33.992188 4.875 -33.953125 C 4.882812 -33.921875 4.890625 -33.90625 4.890625 -33.90625 C 4.890625 -33.90625 4.914062 -33.90625 4.96875 -33.90625 C 5.03125 -33.914062 5.066406 -33.878906 5.078125 -33.796875 C 5.085938 -33.722656 5.113281 -33.640625 5.15625 -33.546875 C 5.207031 -33.460938 5.25 -33.316406 5.28125 -33.109375 C 5.3125 -32.910156 5.34375 -32.671875 5.375 -32.390625 C 5.414062 -32.109375 5.460938 -31.765625 5.515625 -31.359375 C 5.578125 -30.953125 5.628906 -30.472656 5.671875 -29.921875 C 5.710938 -29.378906 5.78125 -28.75 5.875 -28.03125 C 6.507812 -29.539062 7.125 -31.128906 7.71875 -32.796875 C 9.082031 -36.691406 10.796875 -40.367188 12.859375 -43.828125 C 14.921875 -47.296875 18.003906 -49.703125 22.109375 -51.046875 C 23.867188 -51.515625 25.773438 -51.625 27.828125 -51.375 C 29.878906 -51.125 31.378906 -49.925781 32.328125 -47.78125 C 33.191406 -45.164062 33.75 -42.414062 34 -39.53125 C 34.144531 -37.457031 34.441406 -35.53125 34.890625 -33.75 C 35.347656 -31.96875 36.179688 -30.507812 37.390625 -29.375 C 38.597656 -28.25 40.5 -27.664062 43.09375 -27.625 C 46.59375 -27.570312 50.359375 -28.207031 54.390625 -29.53125 C 58.429688 -30.863281 62.109375 -32.597656 65.421875 -34.734375 C 68.734375 -36.878906 71.09375 -39.234375 72.5 -41.796875 Z M -2 -152.078125 C -3.320312 -146.117188 -3.894531 -137.707031 -3.71875 -126.84375 C -3.550781 -115.988281 -2.957031 -104.582031 -1.9375 -92.625 C -0.925781 -80.664062 0.132812 -70.054688 1.25 -60.796875 C 2.375 -51.546875 3.140625 -45.484375 3.546875 -42.609375 C 8.078125 -47.429688 12.585938 -54.53125 17.078125 -63.90625 C 21.578125 -73.289062 25.285156 -83.421875 28.203125 -94.296875 C 31.117188 -105.171875 32.382812 -115.273438 32 -124.609375 C 31.363281 -132.628906 29.097656 -140.320312 25.203125 -147.6875 C 21.316406 -155.050781 17.050781 -160.117188 12.40625 -162.890625 C 9.175781 -164.523438 6.273438 -164.320312 3.703125 -162.28125 C 1.140625 -160.25 -0.757812 -156.847656 -2 -152.078125 Z M -2 -152.078125 "/></g></g></g><g fill="#ffffff" fill-opacity="1"><g transform="translate(265.982011, 224.817243)"><g><path d="M 4.734375 -5.75 C 3.984375 -5.570312 3.082031 -5.976562 2.03125 -6.96875 C 0.988281 -7.96875 -0.0546875 -9.789062 -1.109375 -12.4375 C -2.171875 -15.082031 -2.945312 -18.835938 -3.4375 -23.703125 C -3.5 -24.191406 -3.585938 -24.8125 -3.703125 -25.5625 C -3.960938 -27.425781 -4.1875 -29.625 -4.375 -32.15625 C -4.5625 -34.695312 -4.507812 -37.007812 -4.21875 -39.09375 C -3.9375 -41.175781 -3.25 -42.5 -2.15625 -43.0625 C 1.175781 -44.476562 3.226562 -43.515625 4 -40.171875 C 4.144531 -39.128906 4.257812 -38.0625 4.34375 -36.96875 C 4.332031 -36.46875 4.367188 -35.941406 4.453125 -35.390625 C 4.597656 -33.804688 4.734375 -32.265625 4.859375 -30.765625 C 5.046875 -29.453125 5.164062 -28.171875 5.21875 -26.921875 C 5.34375 -26.097656 5.507812 -24.90625 5.71875 -23.34375 C 6.144531 -21.15625 6.507812 -18.757812 6.8125 -16.15625 C 7.125 -13.550781 7.15625 -11.253906 6.90625 -9.265625 C 6.65625 -7.273438 5.929688 -6.101562 4.734375 -5.75 Z M 1.140625 -55.328125 C 0.785156 -54.867188 0.253906 -54.53125 -0.453125 -54.3125 C -1.171875 -54.101562 -1.742188 -54.082031 -2.171875 -54.25 C -2.648438 -54.59375 -2.988281 -55.007812 -3.1875 -55.5 C -3.394531 -55.988281 -3.550781 -56.585938 -3.65625 -57.296875 C -3.59375 -57.492188 -3.570312 -57.664062 -3.59375 -57.8125 C -3.613281 -58.5 -3.539062 -59.175781 -3.375 -59.84375 C -2.894531 -61.84375 -1.5 -62.875 0.8125 -62.9375 C 1.644531 -62.976562 2.304688 -62.738281 2.796875 -62.21875 C 3.285156 -61.707031 3.507812 -61.082031 3.46875 -60.34375 C 3.15625 -58.519531 2.378906 -56.847656 1.140625 -55.328125 Z M 1.140625 -55.328125 "/></g></g></g><g fill="#ffffff" fill-opacity="1"><g transform="translate(281.203925, 222.681815)"><g><path d="M 18.375 -68.828125 C 18.863281 -68.816406 19.234375 -68.515625 19.484375 -67.921875 C 19.734375 -67.328125 19.820312 -66.679688 19.75 -65.984375 C 19.675781 -65.296875 19.398438 -64.921875 18.921875 -64.859375 L 0.828125 -62.484375 L 0.890625 -61.984375 C 1.179688 -59.316406 1.457031 -56.125 1.71875 -52.40625 C 2.40625 -44.539062 3.3125 -36.597656 4.4375 -28.578125 C 4.820312 -25.847656 5.535156 -22.113281 6.578125 -17.375 C 7.628906 -12.632812 8.992188 -8.460938 10.671875 -4.859375 C 10.785156 -4.609375 11.097656 -4.179688 11.609375 -3.578125 C 12.203125 -2.816406 12.796875 -1.953125 13.390625 -0.984375 C 13.984375 -0.0234375 14.300781 0.78125 14.34375 1.4375 C 14.394531 2.09375 13.921875 2.363281 12.921875 2.25 C 9.566406 1.644531 6.765625 -0.570312 4.515625 -4.40625 C 2.265625 -8.238281 0.40625 -12.816406 -1.0625 -18.140625 C -2.53125 -23.460938 -3.644531 -28.707031 -4.40625 -33.875 C -5.164062 -39.039062 -5.691406 -43.238281 -5.984375 -46.46875 C -6.191406 -48.6875 -6.410156 -50.898438 -6.640625 -53.109375 C -6.960938 -55.910156 -7.28125 -58.679688 -7.59375 -61.421875 L -21.265625 -59.734375 C -22.421875 -59.566406 -23.113281 -59.695312 -23.34375 -60.125 C -23.582031 -60.550781 -23.523438 -61.023438 -23.171875 -61.546875 C -22.828125 -62.066406 -22.328125 -62.414062 -21.671875 -62.59375 L -7.953125 -64.734375 L -8.890625 -78.0625 C -9.035156 -80.207031 -9.175781 -82.398438 -9.3125 -84.640625 C -9.46875 -85.796875 -9.59375 -86.957031 -9.6875 -88.125 C -9.925781 -89.832031 -9.734375 -91.492188 -9.109375 -93.109375 C -8.328125 -94.554688 -7.207031 -95.207031 -5.75 -95.0625 C -4.457031 -94.8125 -3.644531 -94.050781 -3.3125 -92.78125 C -2.863281 -90.675781 -2.488281 -88.539062 -2.1875 -86.375 C -2.019531 -85.132812 -1.847656 -83.898438 -1.671875 -82.671875 C -1.472656 -81.285156 -1.28125 -79.90625 -1.09375 -78.53125 L 0.328125 -66 Z M 18.375 -68.828125 "/></g></g></g><g clip-path="url(#c5f2f41e9e)"><g clip-path="url(#2d474d9d90)"><g clip-path="url(#867e62eb0a)"><g clip-path="url(#78e3083273)"><path fill="#ffffff" d="M 190.8125 263.253906 C 203.410156 255.710938 219.277344 249.25 236.035156 244.183594 C 252.792969 239.121094 270.4375 235.410156 287.925781 232.683594 C 297.875 231.128906 308.117188 229.871094 316.898438 230.480469 C 325.683594 231.09375 332.746094 233.957031 332.421875 238.453125 C 332.371094 239.207031 332.097656 240.011719 331.21875 240.792969 C 328.753906 242.992188 322.632812 243.972656 318.625 243.558594 C 314.613281 243.140625 311.871094 241.800781 308.34375 241.015625 C 304.609375 240.183594 300.042969 239.984375 295.347656 240.058594 C 274.464844 240.390625 251.390625 246.003906 230.410156 252.589844 C 220.617188 255.667969 210.746094 259.113281 203.375 263.566406 C 199.6875 265.792969 196.707031 268.230469 192.648438 270.332031 C 190.472656 271.457031 187.589844 272.554688 185.023438 272.535156 C 182.210938 272.507812 181.132812 271.0625 181.890625 269.625 C 182.644531 268.1875 184.742188 266.777344 186.773438 265.429688 " fill-opacity="1" fill-rule="nonzero"/></g></g></g></g><g clip-path="url(#c2b39e8e17)"><g clip-path="url(#5a5b0ce30e)"><g clip-path="url(#8884f95982)"><path fill="#ffffff" d="M 350.460938 238.257812 C 350.371094 237.449219 350.15625 236.71875 349.804688 236.144531 C 349.632812 235.84375 349.410156 235.53125 349.152344 235.265625 C 348.9375 235.039062 348.667969 234.824219 348.417969 234.636719 C 348.234375 234.519531 348.046875 234.402344 347.886719 234.289062 C 347.773438 234.210938 347.65625 234.136719 347.542969 234.058594 L 347.40625 233.949219 C 347.203125 233.800781 346.972656 233.648438 346.738281 233.519531 C 346.375 233.363281 346.011719 233.234375 345.667969 233.109375 C 345.351562 232.992188 345.027344 232.921875 344.65625 232.816406 C 344.578125 232.800781 344.480469 232.78125 344.402344 232.761719 C 343.851562 232.648438 343.261719 232.574219 342.5625 232.53125 C 341.96875 232.484375 341.332031 232.511719 340.707031 232.613281 C 340.382812 232.652344 340.054688 232.714844 339.773438 232.8125 C 339.464844 232.90625 339.140625 233.074219 338.828125 233.296875 C 338.515625 233.546875 338.242188 233.726562 338.011719 233.941406 C 337.910156 234.050781 337.78125 234.15625 337.679688 234.265625 C 337.613281 234.332031 337.546875 234.398438 337.480469 234.460938 C 337.3125 234.636719 337.148438 234.785156 337.03125 234.972656 C 336.890625 235.152344 336.734375 235.382812 336.601562 235.644531 C 336.507812 235.835938 336.414062 236.027344 336.347656 236.222656 C 336.3125 236.269531 336.296875 236.34375 336.261719 236.390625 C 336.117188 236.703125 335.996094 237.019531 335.851562 237.460938 C 335.640625 238.078125 335.476562 238.726562 335.375 239.46875 C 335.328125 239.800781 335.269531 240.210938 335.289062 240.609375 C 335.316406 240.984375 335.367188 241.363281 335.472656 241.726562 C 335.566406 242.039062 335.703125 242.382812 335.910156 242.769531 C 336.019531 243.003906 336.183594 243.222656 336.320312 243.433594 L 336.441406 243.617188 C 336.816406 244.199219 337.308594 244.722656 337.9375 245.226562 C 338.234375 245.445312 338.558594 245.644531 338.960938 245.863281 C 339.339844 246.046875 339.75 246.214844 340.066406 246.332031 C 340.359375 246.445312 340.683594 246.515625 341.105469 246.632812 C 341.207031 246.652344 341.28125 246.667969 341.382812 246.691406 C 341.457031 246.707031 341.535156 246.722656 341.609375 246.738281 C 341.859375 246.789062 342.097656 246.789062 342.277344 246.800781 C 342.617188 246.820312 342.957031 246.8125 343.335938 246.761719 C 343.710938 246.734375 344.101562 246.632812 344.457031 246.550781 C 344.625 246.503906 344.816406 246.46875 345.015625 246.402344 C 345.15625 246.355469 345.296875 246.304688 345.414062 246.25 L 345.5 246.214844 C 345.820312 246.074219 346.144531 245.90625 346.566406 245.652344 C 346.925781 245.4375 347.203125 245.234375 347.453125 245.046875 C 347.792969 244.804688 348.074219 244.46875 348.34375 244.183594 C 348.621094 243.871094 348.851562 243.527344 349.078125 243.207031 C 349.265625 242.929688 349.460938 242.628906 349.601562 242.339844 C 349.773438 242.011719 349.90625 241.640625 350.03125 241.300781 C 350.121094 241.003906 350.214844 240.679688 350.320312 240.308594 C 350.402344 239.902344 350.4375 239.488281 350.457031 239.152344 C 350.511719 238.898438 350.492188 238.605469 350.460938 238.257812 Z M 350.460938 238.257812 " fill-opacity="1" fill-rule="nonzero"/></g></g></g></svg>